<?xml version="1.0" encoding="UTF-8"?>
<!DOCTYPE svg PUBLIC "-//W3C//DTD SVG 1.1//EN" "http://www.w3.org/Graphics/SVG/1.1/DTD/svg11.dtd">
<!-- Creator: CorelDRAW -->
<svg xmlns="http://www.w3.org/2000/svg" xml:space="preserve" width="6.82666in" height="6.82666in" style="shape-rendering:geometricPrecision; text-rendering:geometricPrecision; image-rendering:optimizeQuality; fill-rule:evenodd; clip-rule:evenodd"
viewBox="0 0 6.82666 6.82666"
 xmlns:xlink="http://www.w3.org/1999/xlink">
 <defs>
  <style type="text/css">
   <![CDATA[
    .fil4 {fill:none}
    .fil2 {fill:#E53935}
    .fil5 {fill:#FAFAFA}
    .fil1 {fill:#5D4037;fill-rule:nonzero}
    .fil3 {fill:#6D4C41;fill-rule:nonzero}
    .fil0 {fill:#C62828;fill-rule:nonzero}
   ]]>
  </style>
 </defs>
 <g id="Layer_x0020_1">
  <metadata id="CorelCorpID_0Corel-Layer"/>
  <polygon class="fil0" points="2.51192,1.38666 2.51192,2.24 2.29858,2.24 2.29858,1.38666 "/>
  <polygon class="fil0" points="4.85859,1.38666 4.85859,2.24 4.64525,2.24 4.64525,1.38666 "/>
  <path class="fil1" d="M1.22667 1.27999c-0.0589094,0 -0.106669,0.0477598 -0.106669,0.106669 0,0.0589094 0.0477598,0.106669 0.106669,0.106669l4.48 0c0.0589094,0 0.106669,-0.0477598 0.106669,-0.106669 0,-0.0589094 -0.0477598,-0.106669 -0.106669,-0.106669l-4.48 0z"/>
  <path class="fil2" d="M2.13561 2.22641l2.88594 0c0.0807126,0 0.154335,0.032378 0.207913,0.0845315 0.0542835,0.0528465 0.0879803,0.125787 0.0879803,0.206075l0 1.2593c0,0.0802874 -0.0337008,0.153232 -0.0879803,0.206071 -0.0535827,0.0521575 -0.127205,0.0845354 -0.207913,0.0845354l-2.88594 0c-0.0807087,0 -0.154331,-0.032374 -0.207913,-0.0845315 -0.0542795,-0.0528425 -0.0879803,-0.125787 -0.0879803,-0.206075l0 -1.2593c0,-0.0802874 0.0336969,-0.153232 0.0879803,-0.206075 0.0535787,-0.0521535 0.127197,-0.0845315 0.207913,-0.0845315z"/>
  <polygon class="fil3" points="1.22667,0.853331 1.22667,5.97333 1.01333,5.97333 1.01333,0.853331 "/>
  <g id="_248895040">
   <rect id="_248894968" class="fil4" width="6.82666" height="6.82666"/>
   <rect id="_248894728" class="fil4" x="0.853331" y="0.853331" width="5.12" height="5.12"/>
  </g>
  <path class="fil5" d="M4.67 3.5155l0 -0.749902 0.143693 0 0 0.749902 -0.143693 0zm-0.259976 -0.318118c-0.00104724,-0.0417283 -0.0116969,-0.0733307 -0.032126,-0.0949803 -0.0204291,-0.0216535 -0.0453937,-0.0324764 -0.0747283,-0.0324764 -0.0314291,0 -0.0572677,0.0115236 -0.0776969,0.0343937 -0.0204252,0.0227008 -0.0305551,0.0537795 -0.0302047,0.093063l0.214756 0zm-0.00820472 0.145264l0.143343 0.0239213c-0.0185039,0.0525551 -0.0474882,0.0925394 -0.0872992,0.119949 -0.0396339,0.0275866 -0.0893937,0.0412047 -0.149106,0.0412047 -0.0944567,0 -0.164295,-0.0307283 -0.209693,-0.0925354 -0.0357913,-0.0494134 -0.0537756,-0.111917 -0.0537756,-0.187169 0,-0.0900945 0.0235709,-0.16063 0.0707126,-0.211614 0.0469685,-0.0509843 0.106504,-0.0764724 0.178441,-0.0764724 0.0808386,0 0.144567,0.0267126 0.191358,0.0801378 0.0466181,0.0534291 0.0689685,0.135142 0.0670472,0.245311l-0.360197 0c0.00104724,0.0426024 0.0125709,0.0757756 0.0347441,0.0993465 0.0221732,0.023748 0.049937,0.0356181 0.0829331,0.0356181 0.0225236,0 0.0413819,-0.00611024 0.0567441,-0.0183307 0.0153661,-0.0123976 0.027063,-0.032126 0.034748,-0.0593661zm-0.414323 -0.370323l0 0.114539 -0.098122 0 0 0.218945c0,0.0443465 0.000870079,0.070189 0.00279134,0.0775236 0.00192126,0.00733071 0.00611024,0.0132677 0.012748,0.0181575 0.00663386,0.0047126 0.0148386,0.00715748 0.0242677,0.00715748 0.0134449,0 0.0326496,-0.0047126 0.0579685,-0.0137913l0.0122205 0.111394c-0.0335236,0.014315 -0.0712362,0.0214724 -0.113665,0.0214724 -0.0258386,0 -0.0492362,-0.0043622 -0.0700118,-0.0129173 -0.0207795,-0.00873228 -0.0359685,-0.0200787 -0.0457441,-0.033874 -0.00977953,-0.0137913 -0.0164134,-0.0324764 -0.0202559,-0.0560472 -0.0029685,-0.0165866 -0.00453937,-0.0504567 -0.00453937,-0.101264l0 -0.236756 -0.0659961 0 0 -0.114539 0.0659961 0 0 -0.108075 0.14422 -0.0838071 0 0.191882 0.098122 0zm-0.774866 0.271504c0,0.0539488 0.012748,0.0951535 0.0384134,0.123787 0.0254921,0.0286339 0.0570945,0.0429528 0.0946299,0.0429528 0.0375394,0 0.0689685,-0.0143189 0.0942835,-0.0429528 0.0254921,-0.0286339 0.0382402,-0.070189 0.0382402,-0.124839 0,-0.0530748 -0.012748,-0.0941063 -0.0382402,-0.12274 -0.025315,-0.0286339 -0.0567441,-0.0429528 -0.0942835,-0.0429528 -0.0375354,0 -0.0691378,0.0143189 -0.0946299,0.0429528 -0.0256654,0.0286339 -0.0384134,0.0700118 -0.0384134,0.123791zm-0.147358 -0.00768504c0,-0.0476654 0.0118701,-0.0939331 0.0352677,-0.13863 0.0235709,-0.0445236 0.0569173,-0.0787441 0.100043,-0.102142 0.043126,-0.0235709 0.091315,-0.0354409 0.144567,-0.0354409 0.082063,0 0.149457,0.0267126 0.202012,0.0801378 0.0525551,0.0534291 0.0787441,0.120823 0.0787441,0.202362 0,0.0820591 -0.0265394,0.150154 -0.0794409,0.20428 -0.0530787,0.054126 -0.119776,0.0810118 -0.200268,0.0810118 -0.0499331,0 -0.097248,-0.0111732 -0.142472,-0.0336969 -0.0452205,-0.0225236 -0.0796142,-0.0555197 -0.103185,-0.0989961 -0.0233976,-0.0434764 -0.0352677,-0.096378 -0.0352677,-0.158886zm-0.721791 0.279358l0 -0.749902 0.151551 0 0 0.295071 0.296642 0 0 -0.295071 0.151378 0 0 0.749902 -0.151378 0 0 -0.327898 -0.296642 0 0 0.327898 -0.151551 0z"/>
 </g>
</svg>
